<svg width="139" height="34" viewBox="0 0 139 34" fill="none" xmlns="http://www.w3.org/2000/svg">
<path d="M0 27.2947H9.95618C12.8685 27.2947 15.1713 26.5836 16.7629 25.1951C18.3207 23.8405 19.1673 21.9103 19.1673 19.5736C19.1673 17.6433 18.5578 15.9501 17.4064 14.6632C16.8984 14.0875 16.3227 13.6134 15.6454 13.2409C16.0856 12.8346 16.492 12.3943 16.8307 11.8525C17.5757 10.735 17.9821 9.38037 17.9821 7.9242C17.9821 6.7728 17.745 5.68914 17.3048 4.77479C16.8645 3.86045 16.1873 3.11543 15.3406 2.50587C13.8167 1.4222 11.6833 0.880371 9.04183 0.880371H0V27.2947ZM9.68525 22.2489H5.31673V16.1871H9.24501C10.7689 16.1871 11.988 16.5258 12.7331 17.1015C13.3765 17.6095 13.7151 18.3545 13.7151 19.3365C13.7151 20.3186 13.3765 21.0298 12.7669 21.5039C12.0558 22.0118 11.006 22.2489 9.68525 22.2489ZM9.07569 11.2429H5.31673V5.92619L8.73705 5.89232C10.1255 5.89232 11.2092 6.16324 11.8187 6.67121C12.0219 6.84053 12.5976 7.28077 12.5976 8.49989C12.5976 9.48197 12.2928 10.1593 11.6494 10.5995C11.0398 11.0397 10.1594 11.2429 9.07569 11.2429Z" fill="url(#paint0_linear)"/>
<path d="M24.1149 27.2948H29.2285V0L24.1149 1.69323V27.2948Z" fill="url(#paint1_linear)"/>
<path d="M43.0274 27.5317C45.2963 27.5317 47.4298 26.6513 49.0214 25.0596C50.613 23.468 51.4935 21.3345 51.4935 19.0656V8.43213H46.4138V19.0656C46.4138 20.9281 44.8899 22.452 43.0274 22.452C41.1648 22.452 39.6409 20.9281 39.6409 19.0656V8.43213H34.5612V19.0656C34.5612 21.3345 35.4417 23.468 37.0333 25.0596C38.625 26.6513 40.7584 27.5317 43.0274 27.5317Z" fill="url(#paint2_linear)"/>
<path d="M64.8982 27.4302C66.2189 27.4302 67.5058 27.1593 68.7249 26.6174C69.9102 26.1095 70.96 25.3644 71.8404 24.4501L68.2508 21.0636C67.3703 22.0118 66.1851 22.5198 64.8982 22.5198C63.2389 22.5198 61.7827 21.6393 60.9699 20.3525H74.4141V17.8804C74.4141 15.3405 73.4321 12.9361 71.6373 11.1413C69.8424 9.3465 67.4381 8.33057 64.8982 8.33057C62.3245 8.33057 59.954 9.3465 58.1253 11.1413C56.3305 12.9361 55.3484 15.3405 55.3484 17.8804C55.3484 20.4202 56.3305 22.8246 58.1253 24.6194C59.954 26.4142 62.3245 27.4302 64.8982 27.4302ZM60.9699 15.4421C61.7827 14.1214 63.2389 13.2409 64.8982 13.2409C66.5237 13.2409 67.9799 14.1214 68.8265 15.4421H60.9699Z" fill="url(#paint3_linear)"/>
<path d="M86.9463 27.4981C89.3507 27.4981 91.5858 26.8209 93.2451 25.534C94.1595 24.8228 94.8706 23.9762 95.3786 22.9942C95.9204 21.9782 96.1914 20.793 96.1914 19.54C96.1914 17.2372 95.3786 15.4762 93.7531 14.1216C92.3647 13.0041 90.536 12.293 88.6057 11.5141C88.4025 11.4463 88.1993 11.3448 87.9623 11.277C86.6077 10.7352 85.3208 10.2611 84.5081 9.68539C83.9324 9.27902 83.5599 8.87264 83.5938 8.09376C83.5938 6.36666 85.287 5.72324 86.7093 5.72324C88.2332 5.72324 90.0619 6.53599 91.7212 7.89057L92.6694 8.66945L95.9205 4.47025L95.04 3.72523C92.534 1.72722 89.6555 0.643555 86.7093 0.643555C84.4065 0.643555 82.273 1.42244 80.6814 2.77702C79.0559 4.19933 78.1754 6.12961 78.1754 8.19535C78.1754 9.41447 78.4125 10.4981 78.9204 11.4463C79.3607 12.3268 80.0041 13.0718 80.8507 13.783C82.3408 14.9344 84.2033 15.6794 86.0997 16.3906C86.2352 16.4583 86.3706 16.4922 86.4722 16.526C87.8607 17.0679 89.0798 17.5081 89.8248 18.0838C90.4683 18.5579 90.7392 19.0659 90.7392 19.8786C90.7392 20.6575 90.4344 21.2332 89.8587 21.6734C89.1814 22.1475 88.1654 22.3846 86.9802 22.3846C85.9643 22.3846 84.8806 22.1475 83.9324 21.7073C82.8826 21.1993 81.9682 20.4882 81.2571 19.6077L82.3919 23.4005L76.8547 22.6555L77.5658 23.4005C80.038 26.042 83.3567 27.4981 86.9463 27.4981Z" fill="url(#paint4_linear)"/>
<path d="M112.494 27.2948H118.488L111.546 16.5598L118.895 8.43227H112.393L105.992 15.6116V0H100.879V27.2948H105.992V22.4861L108.024 20.2849L112.494 27.2948Z" fill="url(#paint5_linear)"/>
<path d="M122.888 33.9999H128.272L138.567 8.43213H133.149L128.882 19.1333L124.344 8.43213H118.756L126.308 25.4999L122.888 33.9999Z" fill="url(#paint6_linear)"/>
<defs>
<linearGradient id="paint0_linear" x1="0" y1="0.880371" x2="25.1119" y2="19.1026" gradientUnits="userSpaceOnUse">
<stop stop-color="#346DFF"/>
<stop offset="1" stop-color="#96BAFF"/>
</linearGradient>
<linearGradient id="paint1_linear" x1="24.1149" y1="0" x2="33.9952" y2="1.85102" gradientUnits="userSpaceOnUse">
<stop stop-color="#346DFF"/>
<stop offset="1" stop-color="#96BAFF"/>
</linearGradient>
<linearGradient id="paint2_linear" x1="34.5612" y1="8.43213" x2="53.5231" y2="25.2423" gradientUnits="userSpaceOnUse">
<stop stop-color="#346DFF"/>
<stop offset="1" stop-color="#96BAFF"/>
</linearGradient>
<linearGradient id="paint3_linear" x1="55.3484" y1="8.33057" x2="74.448" y2="27.3963" gradientUnits="userSpaceOnUse">
<stop stop-color="#346DFF"/>
<stop offset="1" stop-color="#96BAFF"/>
</linearGradient>
<linearGradient id="paint4_linear" x1="76.8547" y1="0.643555" x2="102.323" y2="18.9822" gradientUnits="userSpaceOnUse">
<stop stop-color="#346DFF"/>
<stop offset="1" stop-color="#96BAFF"/>
</linearGradient>
<linearGradient id="paint5_linear" x1="100.879" y1="0" x2="125.976" y2="16.5657" gradientUnits="userSpaceOnUse">
<stop stop-color="#346DFF"/>
<stop offset="1" stop-color="#96BAFF"/>
</linearGradient>
<linearGradient id="paint6_linear" x1="118.756" y1="8.43213" x2="143.514" y2="27.6153" gradientUnits="userSpaceOnUse">
<stop stop-color="#346DFF"/>
<stop offset="1" stop-color="#96BAFF"/>
</linearGradient>
</defs>
</svg>
